<?xml version="1.0" encoding="UTF-8"?><svg id="Layer_2" xmlns="http://www.w3.org/2000/svg" viewBox="0 0 166.11 71.89"><defs><style>.cls-1{fill:#fff;}</style></defs><g id="Layer_1-2"><g id="Layer_2-2"><g id="Layer_2-2"><polygon class="cls-1" points="75.79 13.66 72.61 23.82 78.99 23.82 75.81 13.66 75.79 13.66"/><path class="cls-1" d="M120.5,26.15c1.73,1.83,3.53,2.76,5.85,4.12,5.63-2.38,9.78-11.93,2.43-14.74-6.87-2.85-13.53,4.73-8.28,10.62Z"/><path class="cls-1" d="M39,15c-8.07-8.16-13.16,5.6-9.22,12.19,7.83,8.14,13.38-5.77,9.22-12.19Z"/><path class="cls-1" d="M131.82,44.18c-1.9-1.94-4.33-3.23-6.71-4.47-5.54,2.37-10.99,9.74-5.63,14.96,7.34,5.58,19.82-1.82,12.27-10.46l.07-.03Z"/><path class="cls-1" d="M0,0v71.89h166.11V0H0ZM10.4,9.76c.37-1.12,4.22-1.2,4.59-.04,0,0,0,19.28,0,19.28h7.07c.11,0,.21.03.3.1.54.95.8,3.33-.3,3.9-.48-.12-11.37.35-11.3-.36-.29-.32-.43-.74-.39-1.17l.03-21.71ZM26.5,54.92c-.41,6.95-9.92,10.7-13.81,4.26-4.27-7.5-2.12-26.01,9.94-21.01,5.27,3.52,4.68,11.22,3.88,16.76h-.01ZM44.83,61c-1.6,7.59-10.65-19.79-11.76-20.7h0c-.35,1.81.71,20.27-.42,21.9-.38.05-1.32.16-1.25-.41.4-.47-.95-24.99.82-24.07,1.29-.2,2.12.42,2.5,1.68,0,0,5.06,11.68,5.06,11.68,1.13,2.58,2.25,5.33,3.33,7.93h0c.37-2.28-.73-19.26.42-21.31.44.02,1.28-.18,1.32.46,0,0-.02,22.84-.02,22.84ZM44.35,26.08c-6.28,14.88-25.47,6.25-19.89-10.08,6.16-14.7,25.25-6.61,19.89,10.09h0ZM50.5,30.35c-5.48-6.99-2.87-21.93,7.73-21.64,2.48.13,6.66.83,6.14,4.14.31,3.87-2,.74-3.78.27-6.88-2.26-8.97,6.51-7.44,11.59,1.28,5.87,7.06,4.89,10.92,2.66,2.48,7.44-10.39,7.46-13.57,2.99h0ZM68.38,39.2c.29,1.15-5.63.34-6.03.57v22c.07.61-.88.49-1.27.45-.23-.03-.52-.17-.43-.45,0,0,0-22,0-22h-5.65c-.68-.21-.54-1.52-.2-1.99.19-.21,12.97,0,13.2-.07.61.15.43,1.02.38,1.49ZM84.3,61.75c.12.68-1.82.68-1.69,0,0,0,0-11.38,0-11.38h-9.45v11.38c.11.71-1.8.69-1.69,0,0,0,0-23.67,0-23.67-.11-.72,1.8-.7,1.69,0,0,0,0,10.23,0,10.23h9.37v-10.23c-.12-.7,1.81-.69,1.69,0,0,0,.08,23.67.08,23.67ZM86.25,32.82c-5.84,1.31-4.56-1.03-6.25-5.27h-8.39c-.08.19-1.49,5.07-1.6,5.1-1.19.81-5.44.95-4.04-1.52,0,0,6.93-21.2,6.93-21.2.59-1.59,4.77-1.09,6.04-.5.31,1.31,7.98,22.34,7.31,23.39ZM99.82,61.54c-.03.25-.14.57-.43.59-.4-.31-9.3.47-9.33-.25-.51-.55-.49-23.3,0-23.86.14-.15.34-.24.54-.25h8.66c.46.07.45.69.43,1.06.03.35.02.94-.43,1,0,0-7.7,0-7.7,0v8.59h6.64c.47.06.46.67.44,1.04.03.35,0,.91-.44.94,0,0-6.64,0-6.64,0v9.74h7.83c.6.13.41.95.43,1.4ZM101.58,31.89c-.06.41-.13,1.07-.65,1.1,0,0-10.3,0-10.3,0-.84.07-1.49-.72-1.39-1.53.57-.5-1.36-23.86,1.18-22.42,1.02.03,2.96-.46,3.39.72,0,0,0,19.24,0,19.24h7.07c1.05.34.6,2.02.65,2.9h.05ZM143.58,55.61c-5.42,11.2-22.95,11.48-32.33,5.44-9.14-7.54-3.92-21.63,6.11-25.54-16.71-8.07-8.78-30.66,9.05-28.69,17.69-1.89,23.2,19.68,7.7,27.44,8.14,3.64,13.42,12.76,9.47,21.36h0ZM159.25,57.67c-1.33,5.39-14.44,5.78-12.72-.71,3.97,2.69,12.47,3.67,10.17-3.79-.96-1.62-3.04-2.37-4.66-3.13-7.38-1.99-6.21-13.36,1.69-12.93,2.08.06,5.51.77,4.98,3.51-.31,1.87-2.21-.74-3.3-.72-2.55-.94-6.15.31-5.95,3.45.82,6.71,13.28,4.2,9.8,14.33h0Z"/><path class="cls-1" d="M23.79,42.47c-9.69-11.62-15.22,11.81-7.89,17.08,9.73,4.43,11.02-11.17,7.89-17.08Z"/></g></g><rect class="cls-1" x="102.58" y="2.84" width="60.78" height="65.1"/><rect class="cls-1" x="6.45" y="35.39" width="107.44" height="32.55"/></g></svg>