<?xml version="1.0" encoding="UTF-8"?><svg id="Layer_1" xmlns="http://www.w3.org/2000/svg" xmlns:xlink="http://www.w3.org/1999/xlink" viewBox="0 0 166.11 71.89"><defs><style>.cls-1,.cls-2,.cls-3,.cls-4,.cls-5,.cls-6,.cls-7,.cls-8,.cls-9,.cls-10,.cls-11,.cls-12{fill:none;}.cls-2{clip-path:url(#clippath-2);}.cls-3{clip-path:url(#clippath-4);}.cls-4{clip-path:url(#clippath-1);}.cls-5{clip-path:url(#clippath-3);}.cls-6{clip-path:url(#clippath-7);}.cls-7{clip-path:url(#clippath-8);}.cls-8{clip-path:url(#clippath-9);}.cls-9{clip-path:url(#clippath-6);}.cls-10{clip-path:url(#clippath-5);}.cls-11{clip-path:url(#clippath-10);}.cls-12{clip-path:url(#clippath);}.cls-13{clip-path:url(#clippath-11);}.cls-14{fill:#fff;}</style><clipPath id="clippath"><path class="cls-1" d="M9.12,7.75h3.8v16.33h5.02v3.22h-8.82V7.75Z"/></clipPath><clipPath id="clippath-1"><path class="cls-12" d="M30.9,17.18c0,7.37-2.61,10.36-6.32,10.36-4.44,0-6.18-4.7-6.18-10.07s2.12-9.95,6.44-9.95c4.73,0,6.06,5.19,6.06,9.66ZM22.34,17.53c0,4.44.84,6.7,2.38,6.7s2.2-2.9,2.2-6.87c0-3.42-.52-6.53-2.23-6.53-1.51,0-2.35,2.49-2.35,6.7Z"/></clipPath><clipPath id="clippath-2"><path class="cls-4" d="M42.67,27.02c-.55.26-1.62.46-2.96.46-4.99,0-7.37-4.12-7.37-9.66,0-7.37,4.09-10.24,7.89-10.24,1.33,0,2.26.26,2.64.52l-.64,3.19c-.44-.2-.93-.38-1.77-.38-2.15,0-4.09,1.86-4.09,6.7s1.77,6.5,4.09,6.5c.64,0,1.36-.15,1.83-.29l.38,3.19Z"/></clipPath><clipPath id="clippath-3"><path class="cls-2" d="M48.33,22.84l-.87,4.47h-3.68l4.24-19.55h4.55l3.8,19.55h-3.68l-.84-4.47h-3.51ZM51.49,19.88l-.64-4.09c-.2-1.19-.46-3.13-.64-4.44h-.09c-.2,1.31-.49,3.34-.7,4.47l-.73,4.06h2.78Z"/></clipPath><clipPath id="clippath-4"><path class="cls-5" d="M58.5,7.75h3.8v16.33h5.02v3.22h-8.82V7.75Z"/></clipPath><clipPath id="clippath-5"><path class="cls-3" d="M12.83,62.11l-4.96-19.55h2.67l2.32,9.89c.58,2.44,1.1,4.87,1.45,6.76h.06c.32-1.94.93-4.26,1.6-6.79l2.61-9.86h2.64l2.38,9.92c.55,2.32,1.07,4.64,1.36,6.7h.06c.41-2.15.96-4.32,1.57-6.76l2.58-9.86h2.58l-5.54,19.55h-2.64l-2.47-10.18c-.61-2.49-1.02-4.41-1.28-6.38h-.06c-.35,1.94-.78,3.86-1.51,6.38l-2.78,10.18h-2.64Z"/></clipPath><clipPath id="clippath-6"><path class="cls-10" d="M44.3,52.94h-7.6v7.05h8.47v2.12h-10.99v-19.55h10.56v2.12h-8.04v6.18h7.6v2.09Z"/></clipPath><clipPath id="clippath-7"><path class="cls-9" d="M51.6,55.96l-2.03,6.15h-2.61l6.64-19.55h3.05l6.67,19.55h-2.7l-2.09-6.15h-6.93ZM58.01,53.98l-1.91-5.63c-.44-1.28-.73-2.44-1.02-3.57h-.06c-.29,1.16-.61,2.35-.99,3.54l-1.91,5.66h5.89Z"/></clipPath><clipPath id="clippath-8"><path class="cls-6" d="M67.67,44.7h-5.95v-2.15h14.47v2.15h-5.98v17.4h-2.55v-17.4Z"/></clipPath><clipPath id="clippath-9"><path class="cls-7" d="M80.89,42.55v8.18h9.46v-8.18h2.55v19.55h-2.55v-9.17h-9.46v9.17h-2.52v-19.55h2.52Z"/></clipPath><clipPath id="clippath-10"><path class="cls-8" d="M107.4,52.94h-7.6v7.05h8.47v2.12h-10.99v-19.55h10.56v2.12h-8.03v6.18h7.6v2.09Z"/></clipPath><clipPath id="clippath-11"><path class="cls-11" d="M111.55,42.82c1.28-.26,3.1-.41,4.84-.41,2.7,0,4.44.49,5.66,1.59.99.87,1.54,2.21,1.54,3.71,0,2.58-1.62,4.29-3.68,4.99v.09c1.51.52,2.41,1.92,2.87,3.95.64,2.73,1.1,4.61,1.51,5.37h-2.61c-.32-.55-.75-2.23-1.31-4.67-.58-2.7-1.62-3.71-3.92-3.8h-2.38v8.47h-2.52v-19.29ZM114.07,51.72h2.58c2.7,0,4.41-1.48,4.41-3.71,0-2.52-1.83-3.63-4.5-3.65-1.22,0-2.09.12-2.49.23v7.14Z"/></clipPath></defs><g class="cls-13"><rect class="cls-14" width="166.11" height="71.89"/></g></svg>